<svg width="582" height="59" viewBox="0 0 582 59" fill="none" xmlns="http://www.w3.org/2000/svg">
<g clip-path="url(#clip0_1374_53)">
<g clip-path="url(#clip1_1374_53)">
<path d="M321.57 54.7476L290.827 8.89893L352.314 8.89893L321.57 54.7476Z" stroke="#FF0000" stroke-width="5.59503" stroke-linecap="round" stroke-linejoin="round"/>
<path d="M319.697 10.1353L312.814 16.8344C312.341 17.2909 311.966 17.8339 311.71 18.432C311.454 19.0302 311.323 19.6718 311.323 20.3197C311.323 20.9677 311.454 21.6092 311.71 22.2074C311.966 22.8056 312.341 23.3486 312.814 23.8051C314.72 25.6609 317.767 25.7288 319.79 23.9635L324.603 19.6634C325.81 18.5979 327.38 18.0076 329.01 18.0076C330.639 18.0076 332.21 18.5979 333.416 19.6634L340.299 25.6835" stroke="#FF0000" stroke-width="5.59503" stroke-linecap="round" stroke-linejoin="round"/>
<path d="M334.498 34.8118L328.903 29.2168" stroke="#FF0000" stroke-width="5.59503" stroke-linecap="round" stroke-linejoin="round"/>
<path d="M326.105 43.2044L320.51 37.6094" stroke="#FF0000" stroke-width="5.59503" stroke-linecap="round" stroke-linejoin="round"/>
</g>
<path d="M376.466 41.3654C374.641 41.3654 372.981 40.9851 371.485 40.2246C370.015 39.4641 368.848 38.3613 367.986 36.9163C367.125 35.4713 366.694 33.7221 366.694 31.6687V31.1363C366.694 29.0829 367.125 27.3336 367.986 25.8886C368.848 24.4436 370.015 23.3409 371.485 22.5804C372.981 21.8198 374.641 21.4396 376.466 21.4396C378.266 21.4396 379.813 21.7564 381.106 22.3902C382.398 23.024 383.438 23.8986 384.224 25.014C385.035 26.1041 385.567 27.3463 385.821 28.7406L381.182 29.7293C381.08 28.9688 380.852 28.2843 380.497 27.6759C380.142 27.0675 379.635 26.5858 378.976 26.2309C378.342 25.876 377.544 25.6985 376.58 25.6985C375.617 25.6985 374.742 25.914 373.957 26.345C373.196 26.7506 372.588 27.3717 372.131 28.2083C371.7 29.0195 371.485 30.0208 371.485 31.2123V31.5926C371.485 32.7841 371.7 33.7981 372.131 34.6347C372.588 35.4459 373.196 36.067 373.957 36.498C374.742 36.9036 375.617 37.1064 376.58 37.1064C378.025 37.1064 379.115 36.7388 379.851 36.0037C380.611 35.2431 381.093 34.2544 381.296 33.0376L385.935 34.1404C385.605 35.484 385.035 36.7135 384.224 37.8289C383.438 38.919 382.398 39.7809 381.106 40.4147C379.813 41.0485 378.266 41.3654 376.466 41.3654ZM395.743 41.3654C394.4 41.3654 393.196 41.1372 392.131 40.6809C391.066 40.1992 390.217 39.5148 389.583 38.6275C388.975 37.7148 388.67 36.6121 388.67 35.3192C388.67 34.0263 388.975 32.9489 389.583 32.0869C390.217 31.1997 391.079 30.5405 392.169 30.1096C393.284 29.6533 394.552 29.4251 395.971 29.4251H401.143V28.3604C401.143 27.4731 400.864 26.7506 400.306 26.1929C399.749 25.6098 398.861 25.3182 397.645 25.3182C396.453 25.3182 395.566 25.5971 394.983 26.1548C394.4 26.6872 394.019 27.3843 393.842 28.2463L389.431 26.7633C389.735 25.7999 390.217 24.9253 390.876 24.1394C391.56 23.3282 392.46 22.6818 393.576 22.2001C394.717 21.6931 396.098 21.4396 397.721 21.4396C400.205 21.4396 402.17 22.0607 403.615 23.3029C405.06 24.545 405.782 26.345 405.782 28.7026V35.7375C405.782 36.498 406.137 36.8783 406.847 36.8783H408.368V40.833H405.174C404.236 40.833 403.463 40.6048 402.854 40.1485C402.246 39.6922 401.942 39.0838 401.942 38.3233V38.2852H401.219C401.118 38.5895 400.89 38.9951 400.535 39.5021C400.18 39.9838 399.622 40.4147 398.861 40.795C398.101 41.1752 397.062 41.3654 395.743 41.3654ZM396.58 37.4867C397.923 37.4867 399.014 37.1191 399.85 36.3839C400.712 35.6234 401.143 34.622 401.143 33.3798V32.9996H396.314C395.426 32.9996 394.729 33.1897 394.222 33.57C393.715 33.9502 393.462 34.4826 393.462 35.1671C393.462 35.8516 393.728 36.4093 394.26 36.8402C394.793 37.2712 395.566 37.4867 396.58 37.4867ZM411.871 40.833V21.9719H416.587V24.4436H417.271C417.575 23.7845 418.146 23.1634 418.982 22.5804C419.819 21.9719 421.086 21.6677 422.785 21.6677C424.255 21.6677 425.535 22.01 426.625 22.6944C427.741 23.3536 428.603 24.2789 429.211 25.4704C429.82 26.6365 430.124 28.0054 430.124 29.5772V40.833H425.333V29.9575C425.333 28.5378 424.978 27.4731 424.268 26.7633C423.583 26.0534 422.595 25.6985 421.302 25.6985C419.831 25.6985 418.691 26.1929 417.879 27.1815C417.068 28.1449 416.663 29.5012 416.663 31.2504V40.833H411.871ZM444.959 40.833V21.9719H449.75V40.833H444.959ZM447.354 19.7664C446.492 19.7664 445.757 19.4875 445.149 18.9298C444.566 18.3721 444.274 17.6369 444.274 16.7243C444.274 15.8117 444.566 15.0765 445.149 14.5188C445.757 13.961 446.492 13.6822 447.354 13.6822C448.242 13.6822 448.977 13.961 449.56 14.5188C450.143 15.0765 450.434 15.8117 450.434 16.7243C450.434 17.6369 450.143 18.3721 449.56 18.9298C448.977 19.4875 448.242 19.7664 447.354 19.7664ZM464.715 40.833V21.9719H469.43V24.1014H470.114C470.393 23.3409 470.849 22.7832 471.483 22.4282C472.142 22.0733 472.903 21.8959 473.765 21.8959H476.046V26.1548H473.689C472.472 26.1548 471.471 26.4844 470.685 27.1435C469.899 27.7773 469.506 28.766 469.506 30.1096V40.833H464.715ZM487.717 41.3654C485.841 41.3654 484.18 40.9724 482.735 40.1866C481.316 39.3753 480.2 38.2472 479.389 36.8022C478.603 35.3319 478.21 33.608 478.21 31.6306V31.1743C478.21 29.1969 478.603 27.4858 479.389 26.0407C480.175 24.5704 481.278 23.4423 482.697 22.6564C484.117 21.8452 485.765 21.4396 487.641 21.4396C489.491 21.4396 491.101 21.8578 492.47 22.6944C493.839 23.5057 494.904 24.6464 495.664 26.1168C496.425 27.5618 496.805 29.2476 496.805 31.1743V32.8094H483.078C483.128 34.1023 483.61 35.1544 484.523 35.9656C485.435 36.7769 486.551 37.1825 487.869 37.1825C489.213 37.1825 490.201 36.8909 490.835 36.3079C491.469 35.7248 491.951 35.0784 492.28 34.3685L496.197 36.4219C495.842 37.0811 495.322 37.8036 494.638 38.5895C493.979 39.35 493.091 40.0091 491.976 40.5668C490.86 41.0992 489.441 41.3654 487.717 41.3654ZM483.116 29.235H491.938C491.836 28.1449 491.393 27.2703 490.607 26.6111C489.846 25.952 488.845 25.6225 487.603 25.6225C486.31 25.6225 485.283 25.952 484.523 26.6111C483.762 27.2703 483.293 28.1449 483.116 29.235ZM506.926 41.3654C505.582 41.3654 504.378 41.1372 503.313 40.6809C502.249 40.1992 501.399 39.5148 500.766 38.6275C500.157 37.7148 499.853 36.6121 499.853 35.3192C499.853 34.0263 500.157 32.9489 500.766 32.0869C501.399 31.1997 502.261 30.5405 503.351 30.1096C504.467 29.6533 505.734 29.4251 507.154 29.4251H512.326V28.3604C512.326 27.4731 512.047 26.7506 511.489 26.1929C510.931 25.6098 510.044 25.3182 508.827 25.3182C507.636 25.3182 506.748 25.5971 506.165 26.1548C505.582 26.6872 505.202 27.3843 505.025 28.2463L500.614 26.7633C500.918 25.7999 501.399 24.9253 502.059 24.1394C502.743 23.3282 503.643 22.6818 504.758 22.2001C505.899 21.6931 507.281 21.4396 508.903 21.4396C511.388 21.4396 513.352 22.0607 514.797 23.3029C516.242 24.545 516.965 26.345 516.965 28.7026V35.7375C516.965 36.498 517.32 36.8783 518.03 36.8783H519.551V40.833H516.356C515.418 40.833 514.645 40.6048 514.037 40.1485C513.428 39.6922 513.124 39.0838 513.124 38.3233V38.2852H512.402C512.3 38.5895 512.072 38.9951 511.717 39.5021C511.362 39.9838 510.805 40.4147 510.044 40.795C509.284 41.1752 508.244 41.3654 506.926 41.3654ZM507.762 37.4867C509.106 37.4867 510.196 37.1191 511.033 36.3839C511.895 35.6234 512.326 34.622 512.326 33.3798V32.9996H507.496C506.609 32.9996 505.912 33.1897 505.405 33.57C504.898 33.9502 504.644 34.4826 504.644 35.1671C504.644 35.8516 504.91 36.4093 505.443 36.8402C505.975 37.2712 506.748 37.4867 507.762 37.4867ZM531.543 41.3654C529.717 41.3654 528.057 40.9851 526.561 40.2246C525.091 39.4641 523.925 38.3613 523.063 36.9163C522.201 35.4713 521.77 33.7221 521.77 31.6687V31.1363C521.77 29.0829 522.201 27.3336 523.063 25.8886C523.925 24.4436 525.091 23.3409 526.561 22.5804C528.057 21.8198 529.717 21.4396 531.543 21.4396C533.343 21.4396 534.889 21.7564 536.182 22.3902C537.475 23.024 538.514 23.8986 539.3 25.014C540.111 26.1041 540.644 27.3463 540.897 28.7406L536.258 29.7293C536.156 28.9688 535.928 28.2843 535.573 27.6759C535.218 27.0675 534.711 26.5858 534.052 26.2309C533.419 25.876 532.62 25.6985 531.657 25.6985C530.693 25.6985 529.819 25.914 529.033 26.345C528.272 26.7506 527.664 27.3717 527.208 28.2083C526.777 29.0195 526.561 30.0208 526.561 31.2123V31.5926C526.561 32.7841 526.777 33.7981 527.208 34.6347C527.664 35.4459 528.272 36.067 529.033 36.498C529.819 36.9036 530.693 37.1064 531.657 37.1064C533.102 37.1064 534.192 36.7388 534.927 36.0037C535.687 35.2431 536.169 34.2544 536.372 33.0376L541.011 34.1404C540.682 35.484 540.111 36.7135 539.3 37.8289C538.514 38.919 537.475 39.7809 536.182 40.4147C534.889 41.0485 533.343 41.3654 531.543 41.3654ZM551.557 40.833C550.315 40.833 549.301 40.4527 548.515 39.6922C547.755 38.9063 547.374 37.867 547.374 36.5741V25.9267H542.659V21.9719H547.374V16.1159H552.166V21.9719H557.337V25.9267H552.166V35.7375C552.166 36.498 552.521 36.8783 553.23 36.8783H556.881V40.833H551.557ZM566.96 32.0869V31.1743C566.96 29.8814 567.214 28.8167 567.721 27.9801C568.253 27.1435 569.102 26.4464 570.268 25.8886L570.915 25.5844C572.056 25.0521 572.93 24.4817 573.539 23.8732C574.147 23.2648 574.451 22.4536 574.451 21.4396C574.451 20.7044 574.261 20.0833 573.881 19.5763C573.526 19.0439 573.019 18.6383 572.36 18.3594C571.701 18.0806 570.927 17.9411 570.04 17.9411C569.128 17.9411 568.304 18.0932 567.568 18.3974C566.859 18.7017 566.288 19.158 565.857 19.7664C565.452 20.3748 565.249 21.1353 565.249 22.048V22.8846H560.305V22.124C560.305 20.3748 560.736 18.8664 561.598 17.5989C562.46 16.3314 563.626 15.368 565.097 14.7089C566.567 14.0244 568.215 13.6822 570.04 13.6822C571.84 13.6822 573.437 14.0117 574.831 14.6709C576.251 15.33 577.367 16.2426 578.178 17.4088C578.989 18.5749 579.395 19.9185 579.395 21.4396C579.395 22.9606 579.116 24.2155 578.558 25.2042C578 26.1675 577.291 26.9534 576.429 27.5618C575.592 28.1449 574.73 28.6519 573.843 29.0829L573.196 29.3871C572.74 29.5899 572.423 29.8434 572.246 30.1476C572.068 30.4265 571.979 30.8447 571.979 31.4025V32.0869H566.96ZM569.622 41.3654C568.608 41.3654 567.746 41.0358 567.036 40.3767C566.352 39.6922 566.009 38.8176 566.009 37.7529C566.009 36.6881 566.352 35.8262 567.036 35.1671C567.746 34.4826 568.608 34.1404 569.622 34.1404C570.661 34.1404 571.523 34.4826 572.208 35.1671C572.892 35.8262 573.234 36.6881 573.234 37.7529C573.234 38.8176 572.892 39.6922 572.208 40.3767C571.523 41.0358 570.661 41.3654 569.622 41.3654Z" fill="black"/>
<path d="M8.75907 41.4542C7.48306 41.4542 6.28274 41.1406 5.15812 40.5134C4.05513 39.8646 3.16841 38.9238 2.49796 37.691C1.82751 36.4583 1.49229 34.966 1.49229 33.2142V32.6951C1.49229 30.9433 1.82751 29.451 2.49796 28.2182C3.16841 26.9855 4.05513 26.0555 5.15812 25.4283C6.26112 24.7795 7.46143 24.4551 8.75907 24.4551C9.7323 24.4551 10.5433 24.574 11.1922 24.8119C11.8626 25.0282 12.4033 25.3094 12.8142 25.6554C13.2251 26.0014 13.5387 26.3691 13.755 26.7584H14.3389V18.2913H18.4265V41H14.4038V39.0535H13.8199C13.4522 39.6591 12.8791 40.2106 12.1005 40.708C11.3435 41.2055 10.2297 41.4542 8.75907 41.4542ZM9.99183 37.8857C11.2462 37.8857 12.2951 37.4856 13.1386 36.6853C13.9821 35.8635 14.4038 34.674 14.4038 33.1168V32.7924C14.4038 31.2353 13.9821 30.0566 13.1386 29.2564C12.3168 28.4345 11.2678 28.0236 9.99183 28.0236C8.73745 28.0236 7.68852 28.4345 6.84505 29.2564C6.00159 30.0566 5.57985 31.2353 5.57985 32.7924V33.1168C5.57985 34.674 6.00159 35.8635 6.84505 36.6853C7.68852 37.4856 8.73745 37.8857 9.99183 37.8857ZM27.9543 41.4542C26.808 41.4542 25.7807 41.2595 24.8724 40.8702C23.964 40.4593 23.2395 39.8754 22.6988 39.1184C22.1798 38.3398 21.9202 37.399 21.9202 36.2961C21.9202 35.1931 22.1798 34.2739 22.6988 33.5386C23.2395 32.7816 23.9748 32.2193 24.9048 31.8516C25.8564 31.4623 26.9378 31.2677 28.1489 31.2677H32.5609V30.3593C32.5609 29.6024 32.323 28.986 31.8472 28.5102C31.3714 28.0128 30.6144 27.7641 29.5763 27.7641C28.5598 27.7641 27.8029 28.002 27.3054 28.4778C26.808 28.9319 26.4836 29.5267 26.3322 30.262L22.5691 28.9968C22.8286 28.175 23.2395 27.4288 23.8018 26.7584C24.3858 26.0663 25.1535 25.5148 26.1051 25.1039C27.0784 24.6714 28.2571 24.4551 29.6412 24.4551C31.7607 24.4551 33.4368 24.985 34.6696 26.0447C35.9023 27.1044 36.5187 28.64 36.5187 30.6513V36.6529C36.5187 37.3017 36.8215 37.6261 37.427 37.6261H38.7247V41H35.9996C35.1994 41 34.5398 40.8054 34.0207 40.4161C33.5017 40.0268 33.2422 39.5077 33.2422 38.8589V38.8265H32.6258C32.5393 39.086 32.3446 39.432 32.0418 39.8646C31.7391 40.2755 31.2633 40.6431 30.6144 40.9676C29.9656 41.292 29.0789 41.4542 27.9543 41.4542ZM28.668 38.1452C29.8142 38.1452 30.7442 37.8316 31.4579 37.2044C32.1932 36.5556 32.5609 35.7013 32.5609 34.6416V34.3172H28.4409C27.6839 34.3172 27.0892 34.4794 26.6566 34.8038C26.2241 35.1282 26.0078 35.5824 26.0078 36.1663C26.0078 36.7502 26.2349 37.226 26.6891 37.5937C27.1432 37.9614 27.8029 38.1452 28.668 38.1452ZM46.7049 41C45.6452 41 44.7801 40.6756 44.1096 40.0268C43.4608 39.3563 43.1364 38.4696 43.1364 37.3666V28.2831H39.1137V24.9093H43.1364V19.9133H47.224V24.9093H51.636V28.2831H47.224V36.6529C47.224 37.3017 47.5268 37.6261 48.1323 37.6261H51.2467V41H46.7049ZM60.3319 41.4542C59.1857 41.4542 58.1584 41.2595 57.25 40.8702C56.3417 40.4593 55.6172 39.8754 55.0765 39.1184C54.5574 38.3398 54.2979 37.399 54.2979 36.2961C54.2979 35.1931 54.5574 34.2739 55.0765 33.5386C55.6172 32.7816 56.3525 32.2193 57.2825 31.8516C58.2341 31.4623 59.3154 31.2677 60.5266 31.2677H64.9385V30.3593C64.9385 29.6024 64.7006 28.986 64.2248 28.5102C63.749 28.0128 62.9921 27.7641 61.954 27.7641C60.9375 27.7641 60.1805 28.002 59.6831 28.4778C59.1857 28.9319 58.8613 29.5267 58.7099 30.262L54.9467 28.9968C55.2062 28.175 55.6172 27.4288 56.1795 26.7584C56.7634 26.0663 57.5312 25.5148 58.4828 25.1039C59.456 24.6714 60.6347 24.4551 62.0189 24.4551C64.1383 24.4551 65.8145 24.985 67.0472 26.0447C68.28 27.1044 68.8963 28.64 68.8963 30.6513V36.6529C68.8963 37.3017 69.1991 37.6261 69.8047 37.6261H71.1023V41H68.3773C67.5771 41 66.9174 40.8054 66.3984 40.4161C65.8793 40.0268 65.6198 39.5077 65.6198 38.8589V38.8265H65.0034C64.9169 39.086 64.7223 39.432 64.4195 39.8646C64.1167 40.2755 63.6409 40.6431 62.9921 40.9676C62.3433 41.292 61.4565 41.4542 60.3319 41.4542ZM61.0456 38.1452C62.1919 38.1452 63.1218 37.8316 63.8355 37.2044C64.5709 36.5556 64.9385 35.7013 64.9385 34.6416V34.3172H60.8185C60.0616 34.3172 59.4668 34.4794 59.0343 34.8038C58.6017 35.1282 58.3855 35.5824 58.3855 36.1663C58.3855 36.7502 58.6125 37.226 59.0667 37.5937C59.5209 37.9614 60.1805 38.1452 61.0456 38.1452ZM82.3279 47.4882V24.9093H86.3506V26.8557H86.9346C87.3022 26.2285 87.8754 25.677 88.6539 25.2012C89.4325 24.7038 90.5463 24.4551 91.9954 24.4551C93.293 24.4551 94.4933 24.7795 95.5963 25.4283C96.6993 26.0555 97.586 26.9855 98.2565 28.2182C98.9269 29.451 99.2621 30.9433 99.2621 32.6951V33.2142C99.2621 34.966 98.9269 36.4583 98.2565 37.691C97.586 38.9238 96.6993 39.8646 95.5963 40.5134C94.4933 41.1406 93.293 41.4542 91.9954 41.4542C91.0221 41.4542 90.2003 41.3352 89.5298 41.0973C88.881 40.881 88.3512 40.5999 87.9402 40.2539C87.5509 39.8862 87.2373 39.5185 86.9994 39.1509H86.4155V47.4882H82.3279ZM90.7626 37.8857C92.0386 37.8857 93.0875 37.4856 93.9094 36.6853C94.7528 35.8635 95.1746 34.674 95.1746 33.1168V32.7924C95.1746 31.2353 94.7528 30.0566 93.9094 29.2564C93.0659 28.4345 92.017 28.0236 90.7626 28.0236C89.5082 28.0236 88.4593 28.4345 87.6158 29.2564C86.7724 30.0566 86.3506 31.2353 86.3506 32.7924V33.1168C86.3506 34.674 86.7724 35.8635 87.6158 36.6853C88.4593 37.4856 89.5082 37.8857 90.7626 37.8857ZM103.015 41V24.9093H107.038V26.726H107.622C107.86 26.0771 108.249 25.6013 108.79 25.2985C109.352 24.9958 110.001 24.8444 110.736 24.8444H112.683V28.4778H110.672C109.633 28.4778 108.779 28.7589 108.109 29.3212C107.438 29.8619 107.103 30.7054 107.103 31.8516V41H103.015ZM122.964 41.4542C121.363 41.4542 119.925 41.1298 118.649 40.4809C117.373 39.8321 116.367 38.8913 115.632 37.6586C114.897 36.4258 114.529 34.9443 114.529 33.2142V32.6951C114.529 30.9649 114.897 29.4834 115.632 28.2507C116.367 27.0179 117.373 26.0771 118.649 25.4283C119.925 24.7795 121.363 24.4551 122.964 24.4551C124.564 24.4551 126.002 24.7795 127.278 25.4283C128.554 26.0771 129.56 27.0179 130.295 28.2507C131.031 29.4834 131.398 30.9649 131.398 32.6951V33.2142C131.398 34.9443 131.031 36.4258 130.295 37.6586C129.56 38.8913 128.554 39.8321 127.278 40.4809C126.002 41.1298 124.564 41.4542 122.964 41.4542ZM122.964 37.8208C124.218 37.8208 125.256 37.4207 126.078 36.6205C126.9 35.7986 127.311 34.6307 127.311 33.1168V32.7924C127.311 31.2785 126.9 30.1214 126.078 29.3212C125.278 28.4994 124.24 28.0885 122.964 28.0885C121.709 28.0885 120.671 28.4994 119.849 29.3212C119.027 30.1214 118.617 31.2785 118.617 32.7924V33.1168C118.617 34.6307 119.027 35.7986 119.849 36.6205C120.671 37.4207 121.709 37.8208 122.964 37.8208ZM138.07 41L132.944 24.9093H137.291L141.022 38.0154H141.606L145.337 24.9093H149.684L144.558 41H138.07ZM152.469 41V24.9093H156.557V41H152.469ZM154.513 23.0277C153.777 23.0277 153.15 22.7898 152.631 22.314C152.134 21.8382 151.885 21.211 151.885 20.4324C151.885 19.6538 152.134 19.0266 152.631 18.5508C153.15 18.075 153.777 17.8371 154.513 17.8371C155.27 17.8371 155.897 18.075 156.394 18.5508C156.892 19.0266 157.14 19.6538 157.14 20.4324C157.14 21.211 156.892 21.8382 156.394 22.314C155.897 22.7898 155.27 23.0277 154.513 23.0277ZM167.574 41.4542C166.298 41.4542 165.098 41.1406 163.973 40.5134C162.87 39.8646 161.984 38.9238 161.313 37.691C160.643 36.4583 160.308 34.966 160.308 33.2142V32.6951C160.308 30.9433 160.643 29.451 161.313 28.2182C161.984 26.9855 162.87 26.0555 163.973 25.4283C165.076 24.7795 166.277 24.4551 167.574 24.4551C168.548 24.4551 169.359 24.574 170.007 24.8119C170.678 25.0282 171.219 25.3094 171.629 25.6554C172.04 26.0014 172.354 26.3691 172.57 26.7584H173.154V18.2913H177.242V41H173.219V39.0535H172.635C172.267 39.6591 171.694 40.2106 170.916 40.708C170.159 41.2055 169.045 41.4542 167.574 41.4542ZM168.807 37.8857C170.061 37.8857 171.11 37.4856 171.954 36.6853C172.797 35.8635 173.219 34.674 173.219 33.1168V32.7924C173.219 31.2353 172.797 30.0566 171.954 29.2564C171.132 28.4345 170.083 28.0236 168.807 28.0236C167.553 28.0236 166.504 28.4345 165.66 29.2564C164.817 30.0566 164.395 31.2353 164.395 32.7924V33.1168C164.395 34.674 164.817 35.8635 165.66 36.6853C166.504 37.4856 167.553 37.8857 168.807 37.8857ZM189.105 41.4542C187.505 41.4542 186.088 41.119 184.855 40.4485C183.644 39.7564 182.693 38.794 182.001 37.5613C181.33 36.3069 180.995 34.8362 180.995 33.1493V32.76C180.995 31.073 181.33 29.6132 182.001 28.3804C182.671 27.1261 183.612 26.1636 184.823 25.4932C186.034 24.8011 187.44 24.4551 189.04 24.4551C190.619 24.4551 191.993 24.8119 193.16 25.5256C194.328 26.2177 195.237 27.1909 195.885 28.4453C196.534 29.6781 196.859 31.1163 196.859 32.76V34.1549H185.147C185.191 35.2579 185.602 36.1555 186.38 36.8476C187.159 37.5396 188.11 37.8857 189.235 37.8857C190.381 37.8857 191.225 37.6369 191.765 37.1395C192.306 36.6421 192.717 36.0906 192.998 35.485L196.34 37.2368C196.037 37.7992 195.593 38.4155 195.01 39.086C194.447 39.7348 193.69 40.2971 192.739 40.7729C191.787 41.2271 190.576 41.4542 189.105 41.4542ZM185.18 31.1055H192.706C192.62 30.1755 192.241 29.4294 191.571 28.8671C190.922 28.3047 190.068 28.0236 189.008 28.0236C187.905 28.0236 187.029 28.3047 186.38 28.8671C185.731 29.4294 185.331 30.1755 185.18 31.1055ZM206.985 41.4542C205.709 41.4542 204.509 41.1406 203.384 40.5134C202.281 39.8646 201.394 38.9238 200.724 37.691C200.054 36.4583 199.718 34.966 199.718 33.2142V32.6951C199.718 30.9433 200.054 29.451 200.724 28.2182C201.394 26.9855 202.281 26.0555 203.384 25.4283C204.487 24.7795 205.687 24.4551 206.985 24.4551C207.958 24.4551 208.769 24.574 209.418 24.8119C210.089 25.0282 210.629 25.3094 211.04 25.6554C211.451 26.0014 211.765 26.3691 211.981 26.7584H212.565V18.2913H216.652V41H212.63V39.0535H212.046C211.678 39.6591 211.105 40.2106 210.326 40.708C209.57 41.2055 208.456 41.4542 206.985 41.4542ZM208.218 37.8857C209.472 37.8857 210.521 37.4856 211.365 36.6853C212.208 35.8635 212.63 34.674 212.63 33.1168V32.7924C212.63 31.2353 212.208 30.0566 211.365 29.2564C210.543 28.4345 209.494 28.0236 208.218 28.0236C206.963 28.0236 205.915 28.4345 205.071 29.2564C204.228 30.0566 203.806 31.2353 203.806 32.7924V33.1168C203.806 34.674 204.228 35.8635 205.071 36.6853C205.915 37.4856 206.963 37.8857 208.218 37.8857ZM239.089 41.4542C237.64 41.4542 236.526 41.2055 235.747 40.708C234.969 40.2106 234.396 39.6591 234.028 39.0535H233.444V41H229.421V18.2913H233.509V26.7584H234.093C234.331 26.3691 234.644 26.0014 235.034 25.6554C235.445 25.3094 235.974 25.0282 236.623 24.8119C237.294 24.574 238.116 24.4551 239.089 24.4551C240.386 24.4551 241.587 24.7795 242.69 25.4283C243.793 26.0555 244.679 26.9855 245.35 28.2182C246.02 29.451 246.356 30.9433 246.356 32.6951V33.2142C246.356 34.966 246.02 36.4583 245.35 37.691C244.679 38.9238 243.793 39.8646 242.69 40.5134C241.587 41.1406 240.386 41.4542 239.089 41.4542ZM237.856 37.8857C239.11 37.8857 240.159 37.4856 241.003 36.6853C241.846 35.8635 242.268 34.674 242.268 33.1168V32.7924C242.268 31.2353 241.846 30.0566 241.003 29.2564C240.181 28.4345 239.132 28.0236 237.856 28.0236C236.602 28.0236 235.553 28.4345 234.709 29.2564C233.866 30.0566 233.444 31.2353 233.444 32.7924V33.1168C233.444 34.674 233.866 35.8635 234.709 36.6853C235.553 37.4856 236.602 37.8857 237.856 37.8857ZM251.861 47.4882V43.9197H260.62C261.225 43.9197 261.528 43.5953 261.528 42.9465V38.8913H260.944C260.771 39.259 260.501 39.6267 260.133 39.9943C259.765 40.362 259.268 40.6648 258.641 40.9027C258.014 41.1406 257.213 41.2595 256.24 41.2595C254.986 41.2595 253.883 40.9784 252.931 40.4161C252.001 39.8321 251.277 39.0319 250.758 38.0154C250.239 36.9989 249.979 35.8311 249.979 34.5118V24.9093H254.067V34.1874C254.067 35.3985 254.359 36.3069 254.943 36.9124C255.548 37.518 256.402 37.8208 257.505 37.8208C258.76 37.8208 259.733 37.4099 260.425 36.588C261.117 35.7446 261.463 34.5767 261.463 33.0844V24.9093H265.551V43.8548C265.551 44.9578 265.226 45.8337 264.578 46.4825C263.929 47.153 263.064 47.4882 261.982 47.4882H251.861ZM272.662 41.4542C271.797 41.4542 271.062 41.173 270.456 40.6107C269.872 40.0268 269.58 39.2806 269.58 38.3723C269.58 37.4639 269.872 36.7286 270.456 36.1663C271.062 35.5824 271.797 35.2904 272.662 35.2904C273.549 35.2904 274.284 35.5824 274.868 36.1663C275.452 36.7286 275.744 37.4639 275.744 38.3723C275.744 39.2806 275.452 40.0268 274.868 40.6107C274.284 41.173 273.549 41.4542 272.662 41.4542ZM272.662 30.6189C271.797 30.6189 271.062 30.3377 270.456 29.7754C269.872 29.1915 269.58 28.4453 269.58 27.537C269.58 26.6286 269.872 25.8933 270.456 25.331C271.062 24.7471 271.797 24.4551 272.662 24.4551C273.549 24.4551 274.284 24.7471 274.868 25.331C275.452 25.8933 275.744 26.6286 275.744 27.537C275.744 28.4453 275.452 29.1915 274.868 29.7754C274.284 30.3377 273.549 30.6189 272.662 30.6189Z" fill="black"/>
</g>
<defs>
<clipPath id="clip0_1374_53">
<rect width="582" height="59" fill="white"/>
</clipPath>
<clipPath id="clip1_1374_53">
<rect width="67.1403" height="67.1403" fill="white" transform="translate(288 -4)"/>
</clipPath>
</defs>
</svg>
